# xmcd CD database file
#
# Track frame offsets:
#	150
#	17202
#	31788
#	46599
#	63384
#	79578
#	89850
#	108370
#	127230
#	140019
#
# Disc length: 2098 seconds
#
# Revision: 0
# Processed by: cddbd v1.5.1PL2 Copyright (c) Steve Scherf et al.
# Submitted via: CDex 1.51
#
DISCID=8508300a
DTITLE=Mac Wiseman - Letter Edged In Black
DYEAR=1900
DGENRE=Country
TTITLE0=Great Speckled Bird
TTITLE1=Mom and Dad's Waltz
TTITLE2=Travelin' Blues
TTITLE3=Have I Told You Lately That I Love you
TTITLE4=Wedding Bells
TTITLE5=When God Dips His Love In My Heart
TTITLE6=Letter Edged In Black
TTITLE7=Silver Haired Daddy Of Mine
TTITLE8=Old Spinning Wheel
TTITLE9=The Last Letter
EXTD=
EXTT0=
EXTT1=
EXTT2=
EXTT3=
EXTT4=
EXTT5=
EXTT6=
EXTT7=
EXTT8=
EXTT9=
PLAYORDER=
